<svg xmlns="http://www.w3.org/2000/svg" viewBox="0 0 128 128"><defs><style>.cls-1{isolation:isolate;}.cls-2{mix-blend-mode:multiply;}.cls-3{fill:#489de3;}.cls-4{fill:#7569b0;}.cls-5{fill:#093357;}</style></defs><title>graduation-hat</title><g class="cls-1"><g id="icons" class="cls-2"><path class="cls-3" d="M64.92,81.77a2,2,0,0,1-1.85,0L32,65.61V86c0,6.63,14.33,12,32,12s32-5.37,32-12V65.61Z"/><path class="cls-4" d="M114.92,52.23l-50-26a2,2,0,0,0-1.85,0l-50,26a2,2,0,0,0,0,3.55l50,26a2,2,0,0,0,1.85,0l50-26a2,2,0,0,0,0-3.55Z"/><path class="cls-5" d="M112.95,101.54,110,89.17a6,6,0,0,0-1-10.82V60a2,2,0,0,0-1.68-2l-43-7A2,2,0,0,0,63.68,55L105,61.7V78.35a6,6,0,0,0-1,10.82l-2.91,12.38A2,2,0,0,0,103,104h8a2,2,0,0,0,1.95-2.46Z"/></g></g></svg>